<svg xmlns="http://www.w3.org/2000/svg" fill="none" viewBox="0 0 1204 1204" height="1204" width="1204">
<ellipse fill="#F0DFC4" transform="matrix(0.988245 -0.152877 0.166429 0.986054 590.894 654.203)" ry="480.011" rx="500.278"></ellipse>
<ellipse fill="url(#paint0_radial_124_163)" transform="matrix(0.988245 -0.152877 0.166429 0.986054 590.894 654.203)" ry="480.011" rx="500.278"></ellipse>
<ellipse fill="url(#paint1_radial_124_163)" transform="matrix(-0.988245 0.152877 -0.166428 -0.986054 590.892 654.203)" ry="480.011" rx="500.278"></ellipse>
<ellipse fill="white" transform="matrix(0.988245 -0.152877 0.166429 0.986054 365.37 640.523)" ry="124.803" rx="130.072"></ellipse>
<ellipse fill="white" transform="matrix(0.988245 -0.152877 0.166429 0.986054 788.954 565.283)" ry="124.803" rx="130.072"></ellipse>
<ellipse fill="#363636" transform="matrix(-0.783819 0.611548 -0.652126 -0.766068 774.987 572.358)" ry="67.5216" rx="68.9317"></ellipse>
<ellipse fill="#363636" transform="matrix(0.988245 -0.152877 0.166429 0.986054 395.034 635.934)" ry="67.2015" rx="70.0389"></ellipse>
<mask fill="white" id="path-8-inside-1_124_163">
<path d="M692.805 845.877C692.805 873.232 669.642 895.408 641.069 895.408C612.495 895.408 589.332 873.232 589.332 845.877C589.332 818.522 612.495 796.347 641.069 796.347C669.642 796.347 692.805 818.522 692.805 845.877Z"></path>
</mask>
<path fill="#C78E8E" d="M692.805 845.877C692.805 873.232 669.642 895.408 641.069 895.408C612.495 895.408 589.332 873.232 589.332 845.877C589.332 818.522 612.495 796.347 641.069 796.347C669.642 796.347 692.805 818.522 692.805 845.877Z"></path>
<path mask="url(#path-8-inside-1_124_163)" fill="black" d="M682.784 845.877C682.784 867.356 664.482 885.43 641.069 885.43L641.069 905.385C674.802 905.385 702.826 879.108 702.826 845.877L682.784 845.877ZM641.069 885.43C617.655 885.43 599.353 867.356 599.353 845.877L579.311 845.877C579.311 879.108 607.335 905.385 641.069 905.385L641.069 885.43ZM599.353 845.877C599.353 824.398 617.655 806.324 641.069 806.324L641.069 786.369C607.335 786.369 579.311 812.646 579.311 845.877L599.353 845.877ZM641.069 806.324C664.482 806.324 682.784 824.398 682.784 845.877L702.826 845.877C702.826 812.646 674.802 786.369 641.069 786.369L641.069 806.324Z"></path>
<path fill="black" d="M785.004 162.071C804.121 157.027 820.845 158.103 835.175 165.299C849.643 172.252 859.426 184.583 864.523 202.292C868.624 216.536 868.459 229.317 864.029 240.634C861.937 244.914 855.822 254.709 845.684 270.017C841.827 275.384 839.35 281.215 838.254 287.511C837.019 294.05 837.372 300.688 839.311 307.425L840.475 311.467L807.164 320.256L806 316.214C802.731 304.857 801.947 294.915 803.648 286.389C805.101 277.721 812.879 262.517 826.983 240.778L829.295 235.818C832.681 228.091 833.321 220.569 831.215 213.255C828.555 204.015 823.691 197.221 816.621 192.873C809.663 188.91 801.163 188.253 791.121 190.902C778.376 194.265 770.436 200.605 767.301 209.924C764.357 217.742 764.658 227.811 768.205 240.131L735.183 248.843C728.977 227.284 730.433 208.881 739.549 193.635C748.61 178.197 763.762 167.675 785.004 162.071ZM827.747 330.048C834.313 328.316 840.302 328.91 845.714 331.832C851.181 334.946 854.801 339.583 856.575 345.742C858.458 352.287 857.762 358.166 854.484 363.381C851.399 368.544 846.67 371.966 840.298 373.647C834.311 375.227 828.391 374.51 822.538 371.498C817.126 368.577 813.506 363.94 811.677 357.588C809.848 351.236 810.477 345.478 813.561 340.315C816.839 335.1 821.568 331.678 827.747 330.048Z"></path>
<defs>
<radialGradient gradientTransform="translate(370.206 326.407) rotate(59.0189) scale(515.094 525.551)" gradientUnits="userSpaceOnUse" r="1" cy="0" cx="0" id="paint0_radial_124_163">
<stop stop-opacity="0.92" stop-color="white"></stop>
<stop stop-opacity="0" stop-color="white" offset="1"></stop>
</radialGradient>
<radialGradient gradientTransform="translate(340.189 177.604) rotate(61.9918) scale(788.346 807.249)" gradientUnits="userSpaceOnUse" r="1" cy="0" cx="0" id="paint1_radial_124_163">
<stop stop-opacity="0.43" stop-color="#CB7171" offset="0.012899"></stop>
<stop stop-opacity="0" stop-color="white" offset="1"></stop>
<stop stop-opacity="0" stop-color="white" offset="1"></stop>
</radialGradient>
</defs>
</svg>
