<svg xmlns="http://www.w3.org/2000/svg" fill="none" viewBox="0 0 1204 1204" height="1204" width="1204">
<ellipse fill="#F0DFC4" transform="matrix(0.990234 -0.139412 0.147005 0.989136 599.206 583.202)" ry="515.098" rx="528.646"></ellipse>
<ellipse fill="url(#paint0_radial_113_147)" transform="matrix(0.990234 -0.139412 0.147005 0.989136 599.206 583.202)" ry="515.098" rx="528.646"></ellipse>
<ellipse fill="url(#paint1_radial_113_147)" transform="matrix(-0.990234 0.139412 -0.147005 -0.989136 599.206 583.201)" ry="515.098" rx="528.646"></ellipse>
<path stroke-linecap="round" stroke-width="16" stroke="#363636" d="M816.897 75.8029L835.603 125.155C835.834 125.766 836.601 125.991 837.144 125.607L880.471 94.9214"></path>
<path stroke-linecap="round" stroke-width="16" stroke="#363636" d="M774.641 102.981L810.358 142.407C810.81 142.906 810.651 143.698 810.042 143.982L761.742 166.515"></path>
<path stroke-linecap="round" stroke-width="16" stroke="#363636" d="M908.199 135.913L858.725 154.244C858.109 154.472 857.874 155.202 858.246 155.729L887.353 196.963"></path>
<path stroke-linecap="round" stroke-width="16" stroke="#363636" d="M785.643 209.734L825.74 176.035C826.228 175.624 826.973 175.771 827.271 176.337L850.744 220.865"></path>
<path fill="#C78E8E" d="M745.468 753.8C755.14 741.202 752.566 723.129 738.266 715.807C723.494 708.242 707.702 702.629 691.306 699.152C665.351 693.647 638.485 693.621 612.519 699.077C586.553 704.533 562.09 715.343 540.78 730.779C527.318 740.53 515.312 751.984 505.061 764.806C495.139 777.217 500.453 794.715 514.604 802.307V802.307C528.754 809.899 546.337 804.589 557.156 792.908C562.755 786.863 568.968 781.352 575.714 776.465C590.315 765.889 607.075 758.483 624.866 754.744C642.657 751.006 661.064 751.024 678.847 754.796C687.064 756.538 695.059 759.064 702.722 762.323C717.528 768.62 735.796 766.397 745.468 753.8V753.8Z"></path>
<path fill="#363636" d="M488.025 525.234C484.948 538.43 479.063 550.87 470.704 561.844C462.346 572.817 451.678 582.11 439.309 589.19C426.941 596.27 413.114 601 398.619 603.109C384.123 605.218 369.243 604.665 354.827 601.482C340.412 598.299 326.743 592.547 314.602 584.556C302.461 576.566 292.085 566.491 284.067 554.909C276.049 543.327 270.545 530.464 267.871 517.054C265.196 503.644 265.403 489.95 268.479 476.754L378.252 500.994L488.025 525.234Z"></path>
<path fill="#363636" d="M663.253 488.777C669.158 501.028 677.62 511.964 688.157 520.962C698.694 529.961 711.099 536.844 724.664 541.219C738.23 545.595 752.689 547.377 767.218 546.463C781.746 545.55 796.059 541.96 809.338 535.897C822.618 529.834 834.605 521.417 844.614 511.127C854.624 500.838 862.46 488.877 867.675 475.927C872.89 462.977 875.382 449.292 875.009 435.654C874.636 422.015 871.405 408.69 865.501 396.439L764.377 442.608L663.253 488.777Z"></path>
<defs>
<radialGradient gradientTransform="translate(391.198 350.267) rotate(59.4067) scale(550.522 557.597)" gradientUnits="userSpaceOnUse" r="1" cy="0" cx="0" id="paint0_radial_113_147">
<stop stop-opacity="0.92" stop-color="white"></stop>
<stop stop-opacity="0" stop-color="white" offset="1"></stop>
</radialGradient>
<radialGradient gradientTransform="translate(359.48 190.586) rotate(62.3559) scale(843.139 855.89)" gradientUnits="userSpaceOnUse" r="1" cy="0" cx="0" id="paint1_radial_113_147">
<stop stop-opacity="0.43" stop-color="#CB7171" offset="0.012899"></stop>
<stop stop-opacity="0" stop-color="white" offset="1"></stop>
<stop stop-opacity="0" stop-color="white" offset="1"></stop>
</radialGradient>
</defs>
</svg>
