<svg xmlns="http://www.w3.org/2000/svg" fill="none" viewBox="0 0 1204 1204" height="1204" width="1204">
<circle fill="#F0DFC4" r="569.078" cy="602" cx="602"></circle>
<circle fill="url(#paint0_radial_125_2)" r="569.078" cy="602" cx="602"></circle>
<circle fill="url(#paint1_radial_125_2)" transform="rotate(-180 602 602)" r="569.078" cy="602" cx="602"></circle>
<g filter="url(#filter0_i_125_2)" clip-path="url(#clip0_125_2)">
<path fill="#E24141" d="M254.617 585.387L409.517 610.243L451.73 459.147C458.393 435.793 453.801 406.924 437.537 383.939C414.049 349.676 370.081 336.482 337.252 352.735C309.525 367.312 296.642 397.83 300.488 430.359C301.187 436.273 295.712 439.779 290.632 436.671C263.79 418.87 229.585 418.509 204.748 437.597C176.253 460.618 169.848 506.074 191.146 541.74C206.315 565.426 228.8 581.245 254.617 585.387V585.387Z"></path>
</g>
<g filter="url(#filter1_i_125_2)">
<path fill="#E24141" d="M842.579 371.823L734.136 485.19L609.234 390.263C589.818 375.674 576.041 349.892 575.122 321.75C573.147 280.256 600.22 243.184 636.202 236.31C667.104 231.181 695.805 247.723 712.386 275.971C715.401 281.107 721.882 280.595 724.053 275.049C734.695 244.65 761.738 223.703 793.062 223.915C829.677 225.052 862.237 257.412 866.804 298.701C869.019 326.74 860.653 352.929 842.579 371.823V371.823Z"></path>
</g>
<g filter="url(#filter2_f_125_2)">
<circle fill-opacity="0.87" fill="#FB9696" r="79.6709" cy="749.866" cx="313.651"></circle>
</g>
<path fill="#C78E8E" d="M549.456 724.606C544.059 737.282 549.944 752.144 563.309 755.487C591.601 762.564 621.47 761.733 649.581 752.835C677.692 743.937 702.598 727.429 721.665 705.362C730.673 694.937 726.933 679.395 715.225 672.134V672.134C703.517 664.872 688.306 668.749 678.568 678.496C666.333 690.741 651.258 699.973 634.525 705.27C617.792 710.566 600.15 711.691 583.097 708.715C569.525 706.347 554.853 711.93 549.456 724.606V724.606Z"></path>
<g filter="url(#filter3_f_125_2)">
<circle fill-opacity="0.87" fill="#FB9696" r="67.76" cy="533.76" cx="861.76"></circle>
</g>
<defs>
<filter color-interpolation-filters="sRGB" filterUnits="userSpaceOnUse" height="585.353" width="581.577" y="209.289" x="49.3828" id="filter0_i_125_2">
<feFlood result="BackgroundImageFix" flood-opacity="0"></feFlood>
<feBlend result="shape" in2="BackgroundImageFix" in="SourceGraphic" mode="normal"></feBlend>
<feColorMatrix result="hardAlpha" values="0 0 0 0 0 0 0 0 0 0 0 0 0 0 0 0 0 0 127 0" type="matrix" in="SourceAlpha"></feColorMatrix>
<feOffset></feOffset>
<feGaussianBlur stdDeviation="8"></feGaussianBlur>
<feComposite k3="1" k2="-1" operator="arithmetic" in2="hardAlpha"></feComposite>
<feColorMatrix values="0 0 0 0 0 0 0 0 0 0 0 0 0 0 0 0 0 0 0.43 0" type="matrix"></feColorMatrix>
<feBlend result="effect1_innerShadow_125_2" in2="shape" mode="normal"></feBlend>
</filter>
<filter color-interpolation-filters="sRGB" filterUnits="userSpaceOnUse" height="460.05" width="448.6" y="126.984" x="499.707" id="filter1_i_125_2">
<feFlood result="BackgroundImageFix" flood-opacity="0"></feFlood>
<feBlend result="shape" in2="BackgroundImageFix" in="SourceGraphic" mode="normal"></feBlend>
<feColorMatrix result="hardAlpha" values="0 0 0 0 0 0 0 0 0 0 0 0 0 0 0 0 0 0 127 0" type="matrix" in="SourceAlpha"></feColorMatrix>
<feOffset></feOffset>
<feGaussianBlur stdDeviation="8"></feGaussianBlur>
<feComposite k3="1" k2="-1" operator="arithmetic" in2="hardAlpha"></feComposite>
<feColorMatrix values="0 0 0 0 0 0 0 0 0 0 0 0 0 0 0 0 0 0 0.43 0" type="matrix"></feColorMatrix>
<feBlend result="effect1_innerShadow_125_2" in2="shape" mode="normal"></feBlend>
</filter>
<filter color-interpolation-filters="sRGB" filterUnits="userSpaceOnUse" height="177.342" width="177.342" y="661.195" x="224.98" id="filter2_f_125_2">
<feFlood result="BackgroundImageFix" flood-opacity="0"></feFlood>
<feBlend result="shape" in2="BackgroundImageFix" in="SourceGraphic" mode="normal"></feBlend>
<feGaussianBlur result="effect1_foregroundBlur_125_2" stdDeviation="4.5"></feGaussianBlur>
</filter>
<filter color-interpolation-filters="sRGB" filterUnits="userSpaceOnUse" height="153.52" width="153.52" y="457" x="785" id="filter3_f_125_2">
<feFlood result="BackgroundImageFix" flood-opacity="0"></feFlood>
<feBlend result="shape" in2="BackgroundImageFix" in="SourceGraphic" mode="normal"></feBlend>
<feGaussianBlur result="effect1_foregroundBlur_125_2" stdDeviation="4.5"></feGaussianBlur>
</filter>
<radialGradient gradientTransform="translate(454.04 419.895) rotate(60.0543) scale(604.215)" gradientUnits="userSpaceOnUse" r="1" cy="0" cx="0" id="paint0_radial_125_2">
<stop stop-opacity="0.92" stop-color="white"></stop>
<stop stop-opacity="0" stop-color="white" offset="1"></stop>
</radialGradient>
<radialGradient gradientTransform="translate(419.895 243.481) rotate(62.9627) scale(926.41)" gradientUnits="userSpaceOnUse" r="1" cy="0" cx="0" id="paint1_radial_125_2">
<stop stop-opacity="0.43" stop-color="#CB7171" offset="0.012899"></stop>
<stop stop-opacity="0" stop-color="white" offset="1"></stop>
<stop stop-opacity="0" stop-color="white" offset="1"></stop>
</radialGradient>
<clipPath id="clip0_125_2">
<rect transform="translate(49.3828 433.717) rotate(-32.6375)" fill="white" height="428.601" width="416.13"></rect>
</clipPath>
</defs>
</svg>
