<svg xmlns="http://www.w3.org/2000/svg" fill="none" viewBox="0 0 1204 1204" height="1204" width="1204">
<ellipse fill="#F0DFC4" ry="560.862" rx="569.078" cy="599.103" cx="602"></ellipse>
<ellipse fill="url(#paint0_radial_122_22)" ry="560.862" rx="569.078" cy="599.103" cx="602"></ellipse>
<ellipse fill="url(#paint1_radial_122_22)" transform="rotate(-180 602 599.104)" ry="560.862" rx="569.078" cy="599.104" cx="602"></ellipse>
<path fill="#C78E8E" d="M687.792 289.957L683.274 282.027L689.816 220.208L658 237.817L651.724 226.802L700.441 199.838L704.959 207.767L698.386 269.604L730.233 251.978L736.509 262.992L687.792 289.957Z"></path>
<path fill="#C78E8E" d="M735.438 153.101L729.655 142.951L738.029 63.8223L697.305 86.3623L689.271 72.2633L751.629 37.749L757.413 47.8987L748.999 127.05L789.763 104.488L797.797 118.587L735.438 153.101Z"></path>
<path fill="#C78E8E" d="M909.654 238.076L902.877 226.182L912.69 133.453L864.966 159.867L855.552 143.345L928.628 102.898L935.406 114.793L925.546 207.548L973.316 181.108L982.73 197.63L909.654 238.076Z"></path>
<path fill="black" d="M246.747 588.718C242.943 597.523 247.011 607.768 256.216 610.502C286.185 619.402 318.298 619.392 348.466 610.259C378.506 601.164 404.99 583.518 424.695 559.725C430.905 552.227 428.508 541.316 420.326 536.122V536.122C412.182 530.952 401.398 533.429 394.986 540.698C379.942 557.753 360.283 570.428 338.141 577.131C315.91 583.861 292.321 584.225 270.077 578.362C260.789 575.913 250.551 579.913 246.747 588.718V588.718Z"></path>
<path fill="black" d="M634.755 457.774C630.951 466.579 635.019 476.824 644.224 479.558C674.781 488.633 707.555 488.439 738.209 478.778C768.738 469.157 795.45 450.686 814.973 425.975C821.006 418.338 818.358 407.491 810.059 402.484V402.484C801.794 397.499 791.064 400.221 784.819 407.637C769.873 425.384 750.021 438.671 727.499 445.769C704.885 452.897 680.788 453.402 658.085 447.417C648.797 444.969 638.559 448.969 634.755 457.774V457.774Z"></path>
<ellipse stroke-width="20" stroke="#363636" fill="#C78E8E" transform="matrix(0.99123 -0.132151 0.13598 0.990712 641.186 775.158)" ry="105.371" rx="95.0629"></ellipse>
<defs>
<radialGradient gradientTransform="translate(454.04 419.627) rotate(59.6926) scale(597.677 602.006)" gradientUnits="userSpaceOnUse" r="1" cy="0" cx="0" id="paint0_radial_122_22">
<stop stop-opacity="0.92" stop-color="white"></stop>
<stop stop-opacity="0" stop-color="white" offset="1"></stop>
</radialGradient>
<radialGradient gradientTransform="translate(419.895 245.761) rotate(62.6239) scale(915.814 923.598)" gradientUnits="userSpaceOnUse" r="1" cy="0" cx="0" id="paint1_radial_122_22">
<stop stop-opacity="0.43" stop-color="#CB7171" offset="0.012899"></stop>
<stop stop-opacity="0" stop-color="white" offset="1"></stop>
<stop stop-opacity="0" stop-color="white" offset="1"></stop>
</radialGradient>
</defs>
</svg>
