<svg xmlns="http://www.w3.org/2000/svg" fill="none" viewBox="0 0 1204 1204" height="1204" width="1204">
<ellipse fill="#F0DFC4" transform="rotate(-6.97878 602 602.001)" ry="540.35" rx="540.35" cy="602.001" cx="602"></ellipse>
<ellipse fill="url(#paint0_radial_124_265)" transform="rotate(-6.97878 602 602.001)" ry="540.35" rx="540.35" cy="602.001" cx="602"></ellipse>
<circle fill="url(#paint1_radial_124_265)" transform="rotate(173.021 602 602)" r="540.35" cy="602" cx="602"></circle>
<path fill="#363636" d="M512.136 709.699C474.876 714.403 447.493 749.493 464.96 782.739C467.724 787.999 470.738 793.137 473.998 798.136C489.697 822.212 510.657 842.41 535.299 857.206C559.941 872.002 587.62 881.01 616.251 883.551C644.881 886.092 673.714 882.099 700.576 871.873C727.439 861.648 751.628 845.457 771.322 824.521C791.016 803.586 805.699 778.452 814.264 751.015C822.829 723.578 825.053 694.555 820.768 666.133C819.879 660.233 818.714 654.39 817.28 648.624C808.218 612.179 764.433 604.18 733.477 625.443L646.64 685.091C637.699 691.233 627.418 695.146 616.656 696.505L512.136 709.699Z"></path>
<path fill="#363636" d="M480.671 525.581C489.52 511.647 485.459 492.932 470.31 486.376C454.66 479.603 438.127 474.952 421.149 472.583C394.271 468.832 366.903 470.886 340.887 478.608C314.871 486.329 290.813 499.538 270.334 517.345C257.397 528.593 246.078 541.511 236.657 555.724C227.537 569.483 234.344 587.384 249.362 594.234V594.234C264.381 601.084 281.87 594.164 291.96 581.101C297.182 574.34 303.072 568.091 309.555 562.454C323.586 550.254 340.07 541.203 357.895 535.913C375.72 530.623 394.472 529.215 412.887 531.785C421.395 532.972 429.741 534.996 437.806 537.814C453.389 543.257 471.821 539.515 480.671 525.581V525.581Z"></path>
<path fill="#363636" d="M866.954 408.357C875.803 394.423 871.742 375.707 856.593 369.151C840.943 362.379 824.41 357.727 807.432 355.358C780.555 351.607 753.186 353.662 727.17 361.383C701.154 369.105 677.096 382.314 656.617 400.12C643.68 411.368 632.362 424.286 622.94 438.499C613.821 452.258 620.627 470.159 635.646 477.009V477.009C650.664 483.859 668.153 476.94 678.243 463.876C683.465 457.115 689.355 450.866 695.838 445.229C709.87 433.029 726.353 423.979 744.178 418.688C762.003 413.398 780.755 411.99 799.17 414.56C807.679 415.748 816.024 417.772 824.089 420.589C839.672 426.033 858.104 422.291 866.954 408.357V408.357Z"></path>
<path fill="#C78E8E" d="M788.627 803.231C770.558 786.29 746.259 775.916 719.536 775.916C663.735 775.916 618.5 821.152 618.5 876.953C618.5 879.238 618.575 881.506 618.725 883.754C646.54 885.856 674.488 881.804 700.576 871.873C727.439 861.647 751.628 845.456 771.322 824.521C777.614 817.832 783.394 810.715 788.627 803.231Z" clip-rule="evenodd" fill-rule="evenodd"></path>
<path fill="#5E96EB" d="M279.768 596.171L305.563 660.138C319.809 695.466 302.719 735.654 267.391 749.9V749.9C232.063 764.147 191.875 747.057 177.629 711.729V711.729C163.383 676.401 180.473 636.213 215.801 621.967L279.768 596.171Z"></path>
<path fill="#5E96EB" d="M822.806 432.844L839.946 499.653C849.412 536.55 886.997 558.787 923.894 549.321V549.321C960.791 539.855 983.029 502.27 973.563 465.373V465.373C964.097 428.476 926.512 406.238 889.614 415.704L822.806 432.844Z"></path>
<defs>
<radialGradient gradientTransform="translate(461.509 429.089) rotate(60.0543) scale(573.713)" gradientUnits="userSpaceOnUse" r="1" cy="0" cx="0" id="paint0_radial_124_265">
<stop stop-opacity="0.92" stop-color="white"></stop>
<stop stop-opacity="0" stop-color="white" offset="1"></stop>
</radialGradient>
<radialGradient gradientTransform="translate(429.088 261.58) rotate(62.9627) scale(879.642)" gradientUnits="userSpaceOnUse" r="1" cy="0" cx="0" id="paint1_radial_124_265">
<stop stop-opacity="0.43" stop-color="#CB7171" offset="0.012899"></stop>
<stop stop-opacity="0" stop-color="white" offset="1"></stop>
<stop stop-opacity="0" stop-color="white" offset="1"></stop>
</radialGradient>
</defs>
</svg>
