<?xml version="1.0" standalone="no"?><!DOCTYPE svg PUBLIC "-//W3C//DTD SVG 1.1//EN" "http://www.w3.org/Graphics/SVG/1.1/DTD/svg11.dtd"><svg t="1679323499144" class="icon" viewBox="0 0 1024 1024" version="1.1" xmlns="http://www.w3.org/2000/svg" p-id="7433" xmlns:xlink="http://www.w3.org/1999/xlink" width="50" height="50"><path d="M575.187 100.817c162.35 25.012 295.913 144.81 337.285 305.053 35.48 21.803 58.043 60.74 58.043 103.805 0 43.064-22.563 82.002-58.043 103.805C865.834 794.12 702.04 923.364 511.92 923.364c-190.12 0-353.914-129.243-400.552-309.884-35.48-21.803-58.043-60.74-58.043-103.805 0-43.065 22.563-82.002 58.043-103.805 41.379-160.271 174.981-280.083 337.37-305.066A136.566 136.566 0 0 1 511.92 85.32c22.83 0 44.35 5.598 63.267 15.497z m68.52 84.897a136.795 136.795 0 0 1 4.862 36.255c0 46.72-23.87 90.202-63.286 115.285L511.92 383.94l-73.363-46.686c-51.877-33.012-73.946-95.196-58.427-151.539-104.414 42.517-184.634 134.194-209.76 248.527l-3.495 15.903-14.914 6.535c-20.879 9.149-34.646 29.806-34.646 52.995 0 23.189 13.767 43.846 34.646 52.994l14.914 6.535 3.495 15.903c34.955 159.058 176.537 274.267 341.55 274.267s306.595-115.209 341.55-274.267l3.495-15.903 14.914-6.535c20.879-9.148 34.646-29.805 34.646-52.994 0-23.19-13.767-43.846-34.646-52.995l-14.914-6.535-3.495-15.903C828.344 319.908 748.123 228.23 643.707 185.714zM470.25 162.446a72.601 72.601 0 0 0-19.628 20.514c-21.544 33.855-11.565 78.764 22.29 100.308l39.009 24.824 39.009-24.824a72.659 72.659 0 0 0 33.65-61.3c0-24.619-12.245-46.378-30.976-59.52a351.65 351.65 0 0 0-41.683-2.473c-14.078 0-27.985 0.839-41.67 2.471zM341.28 533.25c-23.56 0-42.66-19.1-42.66-42.66 0-23.56 19.1-42.66 42.66-42.66 23.56 0 42.66 19.1 42.66 42.66 0 23.56-19.1 42.66-42.66 42.66z m341.28 0c-23.56 0-42.66-19.1-42.66-42.66 0-23.56 19.1-42.66 42.66-42.66 23.56 0 42.66 19.1 42.66 42.66 0 23.56-19.1 42.66-42.66 42.66z m-41.121 106.872l45.247 45.248c-95.793 95.793-251.105 95.793-346.9 0l45.249-45.248c70.804 70.804 185.6 70.804 256.404 0z" fill="#d81e06" p-id="7434"></path></svg>