<?xml version="1.0" standalone="no"?><!DOCTYPE svg PUBLIC "-//W3C//DTD SVG 1.1//EN" "http://www.w3.org/Graphics/SVG/1.1/DTD/svg11.dtd"><svg t="1679534971239" class="icon" viewBox="0 0 1024 1024" version="1.1" xmlns="http://www.w3.org/2000/svg" p-id="7316" xmlns:xlink="http://www.w3.org/1999/xlink" width="200" height="200"><path d="M453.74 402.14m-223.46 0a223.46 223.46 0 1 0 446.92 0 223.46 223.46 0 1 0-446.92 0Z" fill="#FF0000" opacity=".4" p-id="7317"></path><path d="M841.48 320.22H928v186.81h-86.52z" fill="#FF0000" opacity=".4" p-id="7318"></path><path d="M452.91 654.04c-67.44 0-130.84-26.26-178.53-73.95S200.43 469 200.43 401.56s26.26-130.84 73.95-178.53 111.09-73.95 178.53-73.95 130.84 26.26 178.53 73.95 73.95 111.09 73.95 178.53-26.26 130.84-73.95 178.53-111.09 73.95-178.53 73.95z m0-460.96c-114.96 0-208.48 93.52-208.48 208.48s93.52 208.48 208.48 208.48 208.48-93.52 208.48-208.48-93.52-208.48-208.48-208.48z" fill="#020202" p-id="7319"></path><path d="M452.09 376.84c-37.09 0-67.27-30.18-67.27-67.27S415 242.3 452.09 242.3s67.27 30.18 67.27 67.27-30.18 67.27-67.27 67.27z m0-90.54c-12.83 0-23.27 10.44-23.27 23.27s10.44 23.27 23.27 23.27 23.27-10.44 23.27-23.27-10.44-23.27-23.27-23.27zM452.09 560.82c-37.09 0-67.27-30.18-67.27-67.27s30.18-67.27 67.27-67.27 67.27 30.18 67.27 67.27-30.18 67.27-67.27 67.27z m0-90.54c-12.83 0-23.27 10.44-23.27 23.27s10.44 23.27 23.27 23.27 23.27-10.44 23.27-23.27-10.44-23.27-23.27-23.27zM332.6 469.41c-37.09 0-67.27-30.18-67.27-67.27s30.18-67.27 67.27-67.27 67.27 30.18 67.27 67.27-30.18 67.27-67.27 67.27z m0-90.54c-12.83 0-23.27 10.44-23.27 23.27s10.44 23.27 23.27 23.27 23.27-10.44 23.27-23.27-10.44-23.27-23.27-23.27zM573.21 469.41c-37.09 0-67.27-30.18-67.27-67.27s30.18-67.27 67.27-67.27 67.27 30.18 67.27 67.27-30.18 67.27-67.27 67.27z m0-90.54c-12.83 0-23.27 10.44-23.27 23.27s10.44 23.27 23.27 23.27 23.27-10.44 23.27-23.27-10.44-23.27-23.27-23.27z" fill="#020202" p-id="7320"></path><path d="M774.14 736.34H144.43c-43.62 0-79.1-35.48-79.1-79.1V145.88c0-43.62 35.48-79.1 79.1-79.1h629.72c43.62 0 79.1 35.48 79.1 79.1v511.36c-0.01 43.62-35.5 79.1-79.11 79.1zM144.43 110.78c-19.35 0-35.1 15.75-35.1 35.1v511.36c0 19.35 15.75 35.1 35.1 35.1h629.71c19.35 0 35.1-15.75 35.11-35.11V145.88c0-19.35-15.75-35.1-35.1-35.1H144.43z" fill="#020202" p-id="7321"></path><path d="M928.84 550.97c-4.01 0-8.05-0.71-11.91-2.16h-0.01l-104.83-39.28V318.95l104.83-39.28a33.993 33.993 0 0 1 31.29 3.9 33.985 33.985 0 0 1 14.61 27.92V517c0 11.13-5.46 21.57-14.61 27.91-5.76 4-12.54 6.06-19.37 6.06z m3.49-43.37l0.02 0.01c-0.01-0.01-0.01-0.01-0.02-0.01z m-76.24-28.57l62.73 23.51v-176.6l-62.73 23.51v129.58z" fill="#020202" p-id="7322"></path><path d="M168.84 958.38l-26.95-13.34c-9.07-4.49-12.92-15.77-8.6-25.19l95.51-208.36c4.32-9.43 15.18-13.43 24.25-8.94L280 715.89c9.07 4.49 12.92 15.77 8.6 25.19l-95.51 208.36c-4.33 9.43-15.18 13.43-24.25 8.94zM689.32 956.9l17.14-8.49c11.78-5.83 16.71-20.63 11.01-33.06L625.21 714.2c-5.7-12.43-19.87-17.77-31.65-11.94l-17.14 8.49c-11.78 5.83-16.71 20.63-11.01 33.06l92.27 201.16c5.7 12.42 19.86 17.76 31.64 11.93zM484.75 638.86l-0.44-11.79c-0.3-8.1-12.1-14.63-26.35-14.59l-230.71 0.72c-14.25 0.04-25.56 6.65-25.25 14.75l0.44 11.79c0.3 8.1 12.1 14.63 26.35 14.59l230.71-0.72c14.25-0.05 25.55-6.65 25.25-14.75z" fill="#020202" p-id="7323"></path></svg>