<?xml version="1.0" standalone="no"?><!DOCTYPE svg PUBLIC "-//W3C//DTD SVG 1.1//EN" "http://www.w3.org/Graphics/SVG/1.1/DTD/svg11.dtd"><svg t="1679323525600" class="icon" viewBox="0 0 1194 1024" version="1.1" xmlns="http://www.w3.org/2000/svg" p-id="8067" xmlns:xlink="http://www.w3.org/1999/xlink" width="58.30078125" height="50"><path d="M1072.270222 421.006222l-171.150222 120.32v-110.705778a114.631111 114.631111 0 0 0-114.631111-114.631111H114.631111a114.631111 114.631111 0 0 0-114.631111 114.631111v458.126223a114.631111 114.631111 0 0 0 114.631111 114.688H786.488889a114.631111 114.631111 0 0 0 114.659555-114.688v-110.648889l171.150223 120.263111c41.329778 29.070222 98.275556-0.512 98.275555-51.057778V472.064c0-50.517333-56.945778-80.099556-98.275555-51.057778" fill="#F83CB6" p-id="8068"></path><path d="M633.457778 0a227.100444 227.100444 0 0 0-179.683556 88.007111 227.612444 227.612444 0 1 0 0 279.239111A227.612444 227.612444 0 1 0 633.457778 0" fill="#31EC7C" p-id="8069"></path><path d="M274.062222 455.196444a227.043556 227.043556 0 0 0 179.683556-87.978666 227.157333 227.157333 0 0 0 179.712 87.978666 227.498667 227.498667 0 0 0 204.202666-127.089777 114.119111 114.119111 0 0 0-51.2-12.174223H114.688a114.631111 114.631111 0 0 0-46.08 9.699556 227.555556 227.555556 0 0 0 205.482667 129.564444" fill="#D51782" p-id="8070"></path><path d="M601.400889 658.119111l-199.68-106.069333a33.109333 33.109333 0 0 0-48.668445 29.297778v192.654222c0 25.031111 26.595556 41.016889 48.64 29.297778l199.68-106.097778a22.101333 22.101333 0 0 0 0-39.082667" fill="#FFFFFF" p-id="8071"></path></svg>