<?xml version="1.0" standalone="no"?><!DOCTYPE svg PUBLIC "-//W3C//DTD SVG 1.1//EN" "http://www.w3.org/Graphics/SVG/1.1/DTD/svg11.dtd"><svg t="1679323465973" class="icon" viewBox="0 0 1024 1024" version="1.1" xmlns="http://www.w3.org/2000/svg" p-id="7031" xmlns:xlink="http://www.w3.org/1999/xlink" width="50" height="50"><path d="M297.35 297.33l198.19 0 0 198.19-198.19 0 0-198.19Z" fill="#EF851A" p-id="7032"></path><path d="M528.46 297.33l198.19 0 0 198.19-198.19 0 0-198.19Z" fill="#EF851A" p-id="7033"></path><path d="M297.35 528.47l198.19 0 0 198.19-198.19 0 0-198.19Z" fill="#EF851A" p-id="7034"></path><path d="M528.46 528.47l198.19 0 0 198.19-198.19 0 0-198.19Z" fill="#EF851A" p-id="7035"></path><path d="M862.4 112H161.6a49.6 49.6 0 0 0-49.6 49.6v700.8a49.6 49.6 0 0 0 49.6 49.6h700.8a49.6 49.6 0 0 0 49.6-49.6V161.6a49.6 49.6 0 0 0-49.6-49.6zM512 857.36c-190.74 0-345.35-154.65-345.35-345.36S321.27 166.64 512 166.64 857.34 321.25 857.34 512 702.73 857.36 512 857.36z" fill="#EF851A" p-id="7036"></path></svg>